<?xml version="1.0" standalone="no"?>
<!DOCTYPE svg PUBLIC "-//W3C//DTD SVG 20010904//EN"
 "http://www.w3.org/TR/2001/REC-SVG-20010904/DTD/svg10.dtd">
<svg version="1.0" xmlns="http://www.w3.org/2000/svg"
 width="1590.000000pt" height="1590.000000pt" viewBox="0 0 1590.000000 1590.000000"
 preserveAspectRatio="xMidYMid meet">
<metadata>
Created by potrace 1.14, written by Peter Selinger 2001-2017
</metadata>
<g transform="translate(0.000000,1590.000000) scale(0.100000,-0.100000)"
fill="#000000" stroke="none">
<path d="M7325 12002 c-2 -2 -167 -5 -367 -8 -423 -4 -884 -13 -981 -18 -38
-2 -122 -16 -188 -32 l-119 -27 -122 -96 c-68 -52 -128 -100 -134 -106 -6 -5
-31 -27 -56 -47 -25 -21 -61 -52 -80 -70 -53 -50 -205 -256 -211 -286 -3 -15
-8 -40 -12 -57 -14 -56 -7 -123 28 -272 9 -38 9 -38 265 -401 46 -66 80 -123
77 -131 -3 -8 -8 -40 -12 -70 -6 -57 -10 -86 -13 -86 -1 0 -2 -14 -3 -30 -1
-17 -12 -44 -25 -60 -51 -66 -76 -113 -91 -176 -17 -67 -16 -78 13 -219 7 -32
29 -87 73 -180 20 -41 44 -105 53 -142 16 -59 44 -113 75 -143 24 -24 86 -66
109 -75 30 -11 55 -50 32 -50 -10 0 -16 -17 -20 -62 -7 -90 -7 -90 -28 -96
-16 -4 -18 -15 -18 -87 0 -88 -16 -145 -38 -137 -11 3 -13 -19 -12 -114 1 -66
1 -123 0 -129 -1 -5 -2 -13 -1 -17 0 -5 -4 -8 -10 -8 -5 0 -7 -5 -3 -12 5 -7
2 -9 -7 -6 -9 4 -14 -2 -14 -17 0 -13 3 -21 7 -19 4 2 10 -1 14 -7 4 -6 -1
-16 -10 -21 -13 -7 -16 -25 -16 -88 0 -72 -2 -80 -19 -80 -10 0 -21 -9 -24
-20 -5 -19 -14 -20 -170 -20 -156 0 -165 -1 -170 -20 -6 -23 -37 -17 -37 6 0
8 -9 14 -20 14 -15 0 -20 -7 -20 -25 0 -25 0 -25 -95 -25 -95 0 -95 0 -95 -25
0 -24 -2 -25 -64 -25 -42 0 -66 -4 -69 -12 -4 -10 -6 -10 -6 0 -2 21 -41 14
-41 -8 0 -17 -7 -20 -41 -20 -28 0 -46 -6 -55 -17 -13 -17 -13 -17 -14 0 0 25
-28 21 -32 -5 -2 -15 -11 -24 -25 -26 -17 -3 -23 -10 -23 -28 0 -19 -5 -24
-27 -24 -22 0 -34 -10 -53 -40 -13 -22 -30 -40 -37 -40 -8 0 -16 -13 -19 -30
-5 -23 -12 -30 -30 -30 -22 0 -24 -4 -24 -45 0 -42 -2 -45 -26 -45 -26 0 -27
-1 -21 -45 6 -43 5 -45 -18 -45 -24 0 -25 -2 -25 -69 0 -50 -4 -74 -16 -85 -9
-9 -11 -16 -4 -16 6 0 8 -5 5 -10 -4 -6 -10 -8 -15 -5 -5 3 -11 1 -14 -4 -3
-4 -6 -189 -6 -410 l-1 -402 -22 -9 c-12 -5 -17 -9 -12 -9 6 -1 11 -10 12 -21
1 -13 -2 -18 -10 -13 -9 5 -9 3 -1 -8 11 -14 27 -65 17 -55 -3 3 -12 -1 -20
-9 -12 -12 -14 -61 -13 -277 1 -320 2 -300 -10 -293 -7 4 -10 -190 -10 -574 0
-445 3 -580 12 -583 9 -3 11 -35 9 -116 -1 -72 1 -112 8 -112 6 0 15 -9 21
-20 8 -15 7 -19 -2 -16 -7 1 -10 1 -5 -1 4 -3 5 -9 2 -14 -4 -5 2 -6 11 -2 12
4 15 3 10 -5 -4 -7 -4 -17 0 -24 4 -6 6 -36 5 -65 -2 -36 2 -58 12 -68 8 -8
17 -12 19 -10 6 7 9 -8 14 -97 5 -69 8 -77 27 -80 20 -3 22 -8 18 -66 -2 -51
0 -62 12 -62 9 0 19 -5 23 -12 4 -7 3 -8 -4 -4 -8 5 -10 2 -6 -8 3 -9 10 -13
15 -10 5 3 9 -22 9 -55 0 -58 1 -61 25 -61 23 0 25 -4 25 -44 0 -39 3 -45 22
-48 15 -2 24 -11 26 -25 2 -14 11 -23 25 -25 14 -2 23 -11 25 -26 2 -14 10
-22 23 -22 12 0 19 -7 19 -20 0 -17 7 -20 44 -20 43 0 65 -18 50 -41 -3 -5 6
-9 20 -9 18 0 26 -6 28 -22 4 -27 25 -35 31 -11 4 17 5 17 6 1 1 -12 9 -18 26
-18 22 0 30 -9 26 -32 0 -5 10 -8 24 -8 20 0 25 -5 25 -25 l0 -25 345 0 c338
0 345 0 345 -20 0 -11 6 -20 14 -20 9 0 12 -11 9 -41 -2 -23 0 -38 5 -35 5 3
9 -1 9 -9 0 -11 -5 -11 -19 -4 -16 9 -18 8 -9 -8 5 -10 12 -31 16 -46 3 -15
10 -25 15 -22 6 3 10 2 10 -4 0 -5 -6 -12 -12 -14 -10 -4 -10 -6 0 -6 9 -1 12
-56 12 -241 0 -162 3 -240 11 -240 5 0 7 -4 4 -10 -3 -5 -1 -10 6 -10 8 0 7
-5 -2 -17 -8 -9 -9 -14 -2 -10 18 11 27 -31 24 -114 -2 -62 0 -77 13 -82 20
-8 21 -37 1 -37 -13 0 -15 -12 -13 -70 2 -49 -1 -73 -11 -82 -8 -7 -11 -8 -8
-2 9 15 -20 27 -29 12 -5 -7 -2 -8 6 -3 9 6 11 4 6 -4 -6 -9 -12 -9 -25 3 -14
13 -21 14 -35 3 -9 -7 -18 -21 -18 -33 -2 -20 -38 -29 -38 -9 0 5 -5 3 -10 -5
-8 -12 -10 -12 -10 -1 0 11 -3 11 -15 1 -8 -7 -15 -8 -15 -3 0 9 -66 11 -74 2
-2 -2 -13 -20 -25 -39 -11 -19 -21 -30 -21 -24 0 16 -38 25 -44 10 -3 -7 -5
-7 -5 2 -1 6 -6 12 -12 12 -5 0 -7 -5 -3 -11 5 -8 1 -8 -14 0 -26 14 -35 14
-27 1 3 -6 1 -10 -5 -10 -7 0 -10 -6 -7 -14 6 -16 -16 -40 -27 -29 -11 11 -36
12 -36 1 0 -5 -7 -3 -15 6 -16 15 -45 12 -45 -5 0 -5 -5 -9 -11 -9 -5 0 -7 5
-3 12 4 7 3 8 -5 4 -8 -6 -9 -12 -2 -20 14 -16 4 -26 -17 -19 -10 4 -13 2 -8
-5 4 -7 2 -12 -3 -12 -6 0 -11 6 -11 13 0 8 -4 7 -10 -3 -8 -12 -10 -13 -10
-1 0 10 -8 7 -25 -9 -14 -13 -24 -29 -21 -36 3 -8 -3 -10 -16 -6 -11 3 -24 -1
-30 -9 -8 -11 -9 -10 -4 3 3 10 1 20 -4 23 -6 4 -10 1 -10 -6 0 -6 -8 -18 -17
-26 -10 -8 -13 -12 -7 -9 6 3 11 -1 11 -8 0 -8 -8 -11 -20 -8 -14 3 -18 1 -13
-6 4 -7 0 -15 -9 -18 -14 -6 -14 -9 0 -30 10 -16 11 -22 3 -19 -8 3 -13 -4
-13 -20 0 -14 5 -25 10 -25 6 0 3 -5 -5 -10 -12 -8 -12 -10 5 -10 15 0 17 -2
6 -9 -8 -5 -10 -14 -6 -22 6 -9 3 -10 -10 -5 -18 6 -18 6 1 -15 10 -12 13 -19
7 -15 -7 4 -13 3 -13 -2 0 -6 11 -13 25 -16 14 -4 25 -13 25 -22 0 -8 4 -12
10 -9 5 3 7 0 4 -8 -3 -8 -1 -18 5 -22 6 -3 11 0 11 7 0 9 3 9 10 -2 9 -13 10
-13 11 0 0 10 3 8 9 -5 5 -11 9 -14 9 -7 1 6 9 12 19 12 14 0 15 -2 2 -10 -13
-8 -12 -10 4 -10 12 0 16 -5 12 -16 -3 -8 -2 -12 3 -9 5 3 13 1 16 -5 5 -8 11
-7 21 1 11 9 14 9 14 -1 0 -10 3 -10 14 -1 12 10 14 8 9 -11 -4 -19 -3 -20 7
-8 10 13 11 12 7 -6 -4 -17 0 -21 22 -20 14 1 31 4 36 8 6 4 17 2 25 -4 12 -8
12 -9 -2 -4 -10 3 -18 3 -18 0 0 -11 28 -33 34 -27 3 4 6 -1 6 -10 0 -10 5
-17 11 -17 5 0 7 5 3 12 -4 7 -3 8 5 4 6 -4 19 -2 28 6 9 7 14 8 10 2 -4 -7 0
-14 8 -18 8 -3 15 0 15 6 0 6 9 3 19 -6 18 -16 20 -16 29 -1 8 16 10 16 15 1
4 -9 13 -16 22 -16 9 0 15 -7 13 -17 -2 -12 5 -17 24 -18 15 -1 25 2 22 7 -3
4 0 8 5 8 6 0 11 -4 11 -8 0 -5 7 -9 15 -9 11 0 12 4 4 14 -16 18 -4 16 15 -3
9 -8 16 -11 16 -6 0 6 6 9 13 8 16 -2 68 -42 63 -47 -11 -11 79 -7 93 4 9 8
12 8 8 1 -11 -18 21 -25 37 -9 8 9 16 10 18 5 2 -6 13 -12 26 -15 12 -2 20 0
17 5 -3 5 -1 11 5 15 5 3 10 -3 10 -14 0 -12 5 -21 11 -21 6 0 9 -6 6 -13 -3
-8 6 -12 29 -12 19 0 34 4 34 9 0 5 8 2 17 -5 15 -12 16 -12 10 4 -4 11 -3 16
3 12 6 -3 10 -14 10 -23 0 -13 5 -12 20 8 11 14 19 19 18 11 -2 -7 3 -16 11
-19 8 -2 11 0 7 6 -9 15 19 9 40 -8 10 -8 15 -10 11 -4 -4 7 3 14 18 17 14 2
28 0 32 -6 4 -6 1 -7 -7 -2 -9 5 -11 4 -6 -3 4 -7 15 -12 24 -12 15 0 15 -2 2
-10 -13 -8 -12 -10 3 -10 11 0 15 -4 11 -12 -5 -7 -3 -8 7 -2 8 5 22 7 33 5
11 -1 16 2 12 8 -10 16 0 13 18 -5 9 -8 16 -11 16 -5 0 6 8 11 18 11 14 0 15
-2 2 -10 -8 -5 -11 -10 -6 -10 5 0 17 7 27 16 13 12 19 12 25 3 4 -8 3 -10 -4
-5 -7 4 -12 2 -12 -3 0 -14 13 -14 28 1 7 7 12 8 12 2 0 -12 35 -12 46 -1 12
12 26 8 18 -5 -6 -10 -4 -10 7 0 7 6 17 12 22 12 4 0 5 -6 1 -12 -6 -10 -4
-10 8 0 13 10 17 10 21 0 4 -10 6 -10 6 1 1 11 4 11 18 0 13 -11 15 -11 9 -1
-7 11 -4 11 13 0 11 -7 23 -19 26 -27 5 -12 3 -12 -12 0 -16 13 -17 12 -4 -3
15 -20 41 -24 41 -8 0 7 6 7 18 1 13 -7 23 -6 32 2 10 9 11 9 5 -1 -5 -10 0
-13 21 -10 16 1 32 7 36 13 5 6 8 5 8 -4 0 -10 3 -11 14 -2 11 10 17 8 25 -6
7 -13 10 -14 11 -4 0 8 3 11 7 8 3 -4 13 -1 21 6 13 10 14 9 7 -2 -6 -11 -4
-13 7 -8 9 3 20 1 26 -5 6 -6 12 -6 17 3 5 8 4 10 -3 5 -7 -4 -12 -2 -12 3 0
16 11 13 33 -7 11 -9 17 -12 14 -5 -4 6 -3 14 3 18 5 3 10 1 10 -6 0 -10 3
-10 12 -1 17 17 33 15 18 -3 -11 -13 -10 -14 6 -9 10 4 24 11 31 16 8 6 10 0
9 -22 l-2 -30 1119 0 c687 0 1116 4 1112 9 -3 5 0 13 6 16 5 4 8 14 4 23 -4
12 -1 12 16 -4 12 -10 19 -14 16 -7 -4 6 -3 14 3 18 5 3 10 1 10 -6 0 -10 3
-10 12 -1 7 7 17 12 23 12 5 0 3 -5 -5 -10 -12 -8 -11 -10 8 -10 12 0 22 5 22
10 0 7 6 7 18 1 13 -7 23 -6 32 2 10 9 11 9 6 0 -8 -15 10 -18 19 -3 3 6 11
10 17 10 6 0 5 -7 -3 -17 -13 -15 -12 -15 7 -5 16 8 24 8 34 -1 10 -9 11 -9 5
2 -6 10 -2 11 16 5 13 -4 29 -7 34 -6 21 2 41 8 54 16 9 6 12 5 8 -1 -4 -6 5
-10 22 -9 16 1 28 3 25 5 -2 2 2 13 8 25 7 11 11 24 10 28 -1 4 5 5 13 2 8 -4
15 -10 15 -15 0 -5 5 -9 11 -9 5 0 7 5 4 10 -3 6 1 10 9 10 9 0 16 -5 16 -11
0 -8 6 -7 17 2 13 11 17 11 21 1 3 -10 7 -10 20 0 12 10 16 10 19 1 3 -7 9
-13 14 -13 6 0 7 5 4 10 -3 6 1 10 9 10 9 0 16 -4 16 -10 0 -5 5 -10 11 -10 5
0 7 5 4 10 -3 6 0 10 9 10 8 0 17 -6 19 -12 4 -10 6 -10 6 0 1 6 6 12 12 12 5
0 8 -4 5 -8 -2 -4 5 -9 17 -9 18 -2 19 0 7 8 -12 9 -11 10 5 7 11 -3 29 4 40
14 19 19 19 19 0 12 -17 -7 -18 -6 -5 8 11 11 19 13 28 6 8 -7 12 -6 12 3 1 9
5 8 15 -5 13 -17 15 -18 15 -3 0 9 5 17 11 17 5 0 7 -6 3 -12 -5 -8 0 -7 11 2
10 8 16 10 13 5 -4 -7 14 -10 47 -11 30 0 52 3 49 8 -6 9 29 2 55 -11 14 -8
22 -8 27 1 4 6 3 8 -4 4 -6 -3 -13 -2 -16 3 -11 17 11 21 25 5 12 -14 14 -13
21 6 5 14 12 19 20 14 8 -5 7 0 -2 11 -11 14 -11 17 -1 11 8 -5 17 -3 22 5 7
11 9 10 9 -5 0 -20 0 -20 16 0 8 10 13 14 10 7 -4 -7 1 -11 14 -10 11 1 20 6
20 11 0 5 6 2 13 -9 11 -14 16 -15 22 -5 6 9 4 11 -5 5 -9 -5 -11 -4 -6 4 6 8
12 9 20 2 9 -7 17 -7 26 2 10 10 12 9 7 -5 -8 -22 9 -24 17 -2 5 14 9 14 23 3
15 -12 16 -11 11 9 -4 12 -2 20 3 16 5 -3 12 2 15 10 3 9 10 16 16 16 5 0 7
-4 4 -8 -2 -4 6 -8 20 -8 16 0 23 5 20 12 -3 8 1 11 9 7 8 -3 13 -8 11 -12 -3
-4 6 -7 19 -7 13 0 21 4 19 8 -3 4 0 8 5 8 6 0 11 -6 11 -12 0 -9 4 -8 10 2 9
13 11 13 20 0 8 -12 10 -10 8 10 -2 19 2 25 15 24 14 -2 15 1 6 12 -13 16 -1
18 21 4 9 -6 17 -5 22 3 6 9 8 8 8 -3 0 -13 1 -13 10 0 6 9 10 11 10 3 0 -7 7
-10 15 -7 8 4 13 10 10 15 -3 4 3 6 15 4 11 -2 19 -1 19 3 -4 26 2 34 15 23
11 -9 16 -9 22 0 5 8 3 9 -6 4 -9 -6 -11 -4 -6 4 6 9 13 8 29 -6 11 -10 17
-13 14 -7 -4 7 0 15 9 18 24 9 28 7 15 -8 -10 -12 -8 -13 9 -9 11 3 30 19 42
35 11 16 23 26 27 21 3 -4 14 -9 24 -9 14 -2 15 1 6 13 -7 8 -8 13 -3 12 22
-4 33 2 28 14 -3 8 3 20 13 28 16 13 17 12 5 -2 -10 -14 -10 -18 1 -22 13 -5
15 -1 19 41 1 10 8 19 14 19 7 0 10 -7 8 -16 -3 -9 1 -6 7 6 7 13 16 23 21 23
4 0 8 6 8 14 0 8 5 18 12 22 6 4 8 3 5 -3 -3 -5 0 -10 7 -10 9 0 14 21 15 73
l2 72 -32 11 c-26 9 -30 13 -19 26 10 12 7 14 -17 12 -24 -2 -28 1 -28 25 1
15 -2 26 -5 26 -3 0 -16 3 -28 7 -18 6 -20 10 -10 16 10 7 9 9 -5 9 -10 0 -16
4 -13 8 3 5 -2 9 -10 9 -9 0 -13 -6 -9 -16 3 -11 0 -10 -10 3 -8 11 -15 14
-15 8 0 -7 -4 -12 -10 -12 -5 0 -10 7 -10 15 0 9 -7 18 -15 21 -8 4 -12 11 -8
17 4 6 0 8 -9 4 -9 -3 -20 -1 -26 5 -6 6 -12 6 -17 -3 -6 -8 -4 -10 5 -4 9 6
11 4 6 -4 -6 -9 -13 -8 -28 5 -11 11 -22 14 -26 9 -12 -18 -32 -16 -25 2 4 11
3 14 -5 9 -8 -5 -12 0 -12 13 0 12 -5 21 -11 21 -5 0 -7 -6 -4 -13 4 -6 -1 -3
-11 8 -16 20 -16 20 -11 -3 5 -22 4 -23 -12 -8 -20 18 -35 21 -25 5 4 -8 1 -8
-12 -1 -11 5 -27 8 -37 7 -11 -2 -14 1 -10 8 9 15 14 41 6 33 -3 -3 -14 -1
-25 5 -14 7 -23 7 -33 -1 -10 -8 -14 -8 -18 2 -3 10 -9 8 -25 -5 -19 -17 -21
-17 -30 -1 -6 11 -11 13 -16 5 -4 -6 -12 -11 -17 -11 -6 0 -7 4 -4 10 3 5 -1
10 -9 10 -14 0 -20 12 -17 33 0 4 -6 7 -15 7 -9 0 -12 -5 -8 -12 4 -7 -1 -6
-12 3 -12 11 -26 14 -39 9 -11 -4 -23 -6 -27 -3 -5 2 -8 -2 -8 -9 -1 -9 -3 -9
-9 2 -11 18 -3 70 10 70 5 0 9 7 9 15 0 9 7 18 15 21 8 4 15 19 15 35 0 16 7
32 18 38 10 6 12 11 4 11 -7 0 -10 5 -7 10 4 6 11 7 17 4 6 -4 8 -2 4 4 -3 6
-2 13 3 16 4 3 11 24 15 46 3 22 10 39 14 39 28 -5 32 3 28 54 -3 35 0 56 9
64 7 6 15 10 17 7 3 -2 5 4 5 14 0 9 -5 20 -11 24 -7 5 -4 8 7 8 15 0 17 11
19 78 2 106 1 105 16 110 6 2 10 8 6 13 -3 5 1 9 8 9 9 0 9 3 -2 10 -9 6 -11
10 -3 10 7 0 10 7 7 15 -4 8 -11 12 -17 8 -6 -3 -7 -1 -3 5 4 6 14 8 22 5 13
-5 15 13 14 143 -2 159 9 218 37 207 14 -5 15 3 11 65 -3 40 -1 72 3 72 5 0 9
9 9 20 0 11 7 20 15 20 12 0 15 18 15 100 0 123 -1 112 15 130 24 27 18 99 -8
83 -6 -4 -8 0 -4 9 3 9 1 20 -5 26 -15 15 0 32 28 32 l26 0 -4 115 c-3 101 -1
115 13 115 31 0 40 25 36 99 -3 39 -2 69 2 67 3 -2 11 7 18 20 6 13 7 22 2 18
-5 -3 -9 0 -9 6 0 6 -3 9 -8 7 -4 -3 -8 21 -9 54 -1 33 2 59 7 59 6 0 10 7 10
15 0 8 7 15 15 15 12 0 15 19 17 103 0 56 1 108 1 114 -1 7 3 11 7 8 5 -3 12
0 16 6 3 6 1 15 -6 19 -9 6 -6 10 9 15 21 6 22 11 20 138 -1 140 3 167 30 168
9 0 11 3 4 5 -7 3 -9 12 -6 21 4 10 2 14 -4 10 -7 -5 -9 0 -6 13 3 11 9 20 14
20 5 0 9 163 9 371 0 342 -1 373 -17 385 -11 8 -13 13 -5 14 6 0 12 7 12 16 0
8 -5 12 -11 8 -8 -5 -8 -1 0 14 8 15 8 23 -1 28 -7 5 -8 3 -3 -6 6 -9 4 -11
-4 -6 -7 5 -10 14 -7 21 2 7 2 16 -2 20 -4 3 -5 38 -3 77 1 39 -1 73 -6 77 -4
3 -16 23 -25 44 -16 33 -18 73 -18 337 0 293 0 300 20 300 13 0 20 7 20 20 0
16 7 20 30 20 27 0 35 8 31 32 0 4 8 10 19 13 13 4 20 15 20 31 0 19 5 24 26
24 26 0 27 1 21 45 -6 43 -5 45 18 45 22 0 25 4 25 36 0 27 3 35 14 31 10 -4
13 -1 9 9 -3 9 1 14 12 14 13 0 16 8 14 41 -2 25 2 43 10 48 8 5 10 14 6 21
-4 7 1 13 14 17 19 5 21 12 19 66 -2 41 1 62 10 64 9 4 12 68 12 278 0 210 -3
274 -12 278 -9 2 -12 23 -10 65 2 53 0 61 -18 67 -11 4 -17 11 -14 17 4 6 1
14 -7 19 -8 5 -12 22 -10 47 2 32 -1 40 -17 44 -10 3 -20 11 -21 19 -1 8 -4
38 -7 67 -5 47 -8 52 -30 52 -22 0 -23 3 -17 45 5 43 5 45 -20 45 -22 0 -26 5
-29 33 -2 19 -8 31 -15 30 -7 -2 -13 4 -13 12 0 8 -4 15 -10 15 -5 0 -10 11
-10 25 0 20 -5 25 -26 25 -21 0 -25 4 -21 19 3 12 -1 22 -10 25 -8 3 -11 11
-8 16 4 6 1 9 -7 8 -7 -2 -12 4 -10 12 2 8 0 12 -4 8 -11 -11 -34 12 -34 33 0
11 -4 19 -10 19 -5 0 -10 11 -10 25 0 20 -5 25 -25 25 -18 0 -25 5 -25 20 0
13 -7 20 -19 20 -20 0 -35 25 -25 41 3 5 -6 10 -20 10 -44 2 -47 4 -60 22 -7
9 -23 17 -35 17 -19 0 -27 15 -22 43 0 4 -10 7 -24 7 -20 0 -25 5 -25 25 0 18
-5 25 -20 25 -10 0 -24 9 -30 20 -6 11 -7 20 -3 20 4 0 -2 6 -12 14 -15 11
-20 29 -23 87 -2 41 -9 79 -16 84 -22 19 -34 63 -29 104 5 39 4 41 -21 41 -24
0 -26 3 -26 45 0 41 -2 45 -25 45 -20 0 -25 5 -25 25 0 20 -5 25 -25 25 -18 0
-25 5 -25 20 0 13 -7 20 -19 20 -20 0 -35 25 -25 41 3 5 -7 9 -22 9 -23 0 -26
3 -22 25 3 14 1 25 -4 25 -5 0 -43 35 -86 78 -42 42 -80 76 -84 74 -5 -1 -8 2
-8 7 0 5 -8 17 -17 27 -10 10 -18 22 -18 28 0 6 -15 12 -32 14 -27 3 -33 7
-33 28 0 18 -5 24 -21 24 -12 0 -23 8 -26 20 -3 11 -14 20 -24 20 -14 0 -19 7
-19 25 0 29 -30 36 -31 8 0 -15 -2 -15 -8 2 -5 12 -1 41 11 75 34 99 49 179
38 201 -6 10 -9 19 -6 19 8 0 -21 94 -53 168 -17 41 -32 83 -34 95 -1 12 -5
27 -8 32 -4 6 -10 28 -13 49 -7 34 -29 80 -46 96 -3 3 -32 40 -64 83 -32 43
-69 88 -83 101 -51 47 -120 68 -242 71 -53 2 -125 10 -160 19 -36 9 -71 14
-78 12 -7 -3 -13 0 -13 6 0 6 -3 8 -6 5 -4 -4 -20 15 -37 41 -37 58 -109 128
-175 167 -31 18 -61 47 -78 75 -67 108 -199 212 -343 269 -57 23 -122 53 -145
66 -152 88 -314 160 -406 180 -56 12 -195 17 -205 7z m709 -8529 c0 -16 5 -23
18 -23 10 0 18 5 18 11 0 5 5 7 12 3 7 -5 9 -2 5 9 -4 11 -2 14 8 10 8 -3 12
-10 8 -17 -5 -7 -2 -7 8 1 8 7 20 8 28 4 7 -4 30 -5 52 -1 30 6 39 4 39 -6 0
-8 6 -14 13 -15 8 0 8 -2 -2 -6 -11 -5 -11 -7 0 -14 10 -6 11 -9 2 -9 -7 0
-13 -5 -13 -11 0 -5 5 -7 12 -3 7 4 8 3 4 -4 -4 -7 -14 -12 -22 -12 -21 0 -21
-434 0 -456 8 -8 19 -14 24 -14 15 0 20 -32 14 -88 -4 -45 -1 -54 17 -70 17
-13 24 -32 28 -80 4 -47 10 -62 22 -63 14 -1 14 -2 -1 -6 -10 -3 -15 -10 -11
-20 5 -13 3 -14 -15 -4 -16 8 -22 9 -22 1 0 -6 -5 -8 -10 -5 -6 4 -8 12 -4 18
3 7 -1 4 -9 -6 -11 -14 -16 -15 -20 -5 -3 8 -6 5 -7 -7 -1 -18 -1 -19 -11 -2
-5 9 -15 17 -20 17 -6 0 -8 -4 -4 -9 3 -5 0 -13 -6 -17 -8 -4 -9 -3 -5 4 4 7
4 13 -1 13 -33 6 -54 5 -58 0 -2 -4 -29 -4 -60 -1 -47 5 -55 4 -50 -9 4 -11 1
-11 -14 3 -18 17 -19 17 -24 -1 -3 -13 -5 -12 -6 6 -1 24 -1 24 -16 5 -8 -10
-15 -15 -15 -10 0 5 -8 2 -17 -5 -9 -8 -14 -9 -10 -3 4 8 -4 13 -23 16 -22 3
-30 1 -31 -11 0 -9 -6 0 -12 19 -15 43 -10 93 9 86 7 -3 16 0 20 6 4 7 3 8 -4
4 -7 -4 -12 -1 -12 9 0 10 5 13 13 9 7 -5 6 0 -3 11 -9 11 -10 16 -2 11 6 -4
12 -2 12 3 0 6 -8 11 -17 12 -11 0 -13 3 -5 6 6 2 10 9 7 14 -4 5 1 6 10 3 14
-6 16 29 15 352 0 198 -1 363 0 367 0 4 33 7 73 5 67 -3 72 -4 71 -25z m-3164
-1267 c0 -2 -8 -10 -17 -17 -16 -13 -17 -12 -4 4 13 16 21 21 21 13z m5945
-36 c3 -6 -1 -7 -9 -4 -18 7 -21 14 -7 14 6 0 13 -4 16 -10z m-105 -368 c0 -5
-7 -17 -15 -28 -14 -18 -14 -17 -4 9 12 27 19 34 19 19z m-5483 -98 c-3 -3
-12 -4 -19 -1 -8 3 -5 6 6 6 11 1 17 -2 13 -5z m193 -50 c0 -8 -19 -13 -24 -6
-3 5 1 9 9 9 8 0 15 -2 15 -3z m3830 -168 c0 -3 -4 -8 -10 -11 -5 -3 -10 -1
-10 4 0 6 5 11 10 11 6 0 10 -2 10 -4z"/>
<path d="M8275 2740 c3 -5 8 -10 11 -10 2 0 4 5 4 10 0 6 -5 10 -11 10 -5 0
-7 -4 -4 -10z"/>
<path d="M5205 2329 c-4 -6 -5 -12 -2 -15 2 -3 7 2 10 11 7 17 1 20 -8 4z"/>
<path d="M5060 2269 c0 -5 5 -7 10 -4 6 3 10 8 10 11 0 2 -4 4 -10 4 -5 0 -10
-5 -10 -11z"/>
<path d="M10840 2139 c0 -5 5 -7 10 -4 6 3 10 8 10 11 0 2 -4 4 -10 4 -5 0
-10 -5 -10 -11z"/>
<path d="M4710 1892 c0 -5 7 -9 15 -9 8 0 12 4 9 9 -3 4 -9 8 -15 8 -5 0 -9
-4 -9 -8z"/>
</g>
</svg>
